<svg width="168" height="32" viewBox="0 0 168 32" fill="none" xmlns="http://www.w3.org/2000/svg">
<path d="M75.6868 16.0967C75.6868 22.4654 71.8016 25.4763 66.9386 25.4763H63.9667V21.6548H66.707C69.6403 21.6548 71.5955 20.0725 71.5955 16.0967C71.5955 12.1594 69.7464 10.1905 66.6201 10.1905C63.6096 10.1905 61.4579 12.0436 61.4579 16.0194V32H57.4053V6.87085H61.4579V9.03275H62.0368C63.3877 7.21856 65.3849 6.40764 67.4691 6.40764C71.9463 6.40764 75.6868 9.65011 75.6868 16.0967ZM49.0527 14.4366L46.3509 14.1663C44.2281 13.9734 43.1088 13.3944 43.1088 12.1591C43.1088 10.6923 44.537 9.84313 46.5824 9.84313C48.7053 9.84313 50.0561 10.8467 50.1719 12.2749H54.0701C53.9158 8.64653 51.0984 6.40764 46.6212 6.40764C42.1054 6.40764 39.0562 8.80091 39.0562 12.3136C39.0562 15.2472 40.9088 17.1386 45.1159 17.5632L47.8561 17.8334C49.5159 17.9877 50.6352 18.3351 50.6352 19.9178C50.6352 21.3461 49.5929 22.3882 46.8527 22.3882C44.3293 22.3882 43.0859 21.243 42.6496 19.7079H38.4323C38.8525 23.2169 41.7999 25.9395 46.8527 25.9395C51.6001 25.9395 54.6876 23.4304 54.6876 19.7249C54.6876 16.4438 52.5264 14.784 49.0527 14.4366ZM91.3825 19.7079C90.7467 21.1682 89.2276 22.2725 87.0719 22.2725C84.1001 22.2725 81.9002 20.3425 81.9002 16.1736C81.9002 12.1978 83.9457 9.99751 87.1105 9.99751C89.9281 9.99751 91.5491 11.696 91.7036 14.2435H84.4088V17.1774H95.679V15.2472C95.679 9.88171 92.1281 6.40764 87.0719 6.40764C82.3633 6.40764 77.8474 9.61153 77.8474 16.1736C77.8474 22.7356 82.3633 25.9395 87.0719 25.9395C91.3788 25.9395 94.4499 23.2862 95.4041 19.7079H91.3825ZM27.4968 6.40764C23.0583 6.40764 19.739 8.72398 19.3531 12.2749H23.7144C24.0232 10.9628 25.2196 9.99781 27.4968 9.99781C30.4302 9.99781 31.3951 11.5421 31.3951 13.4332V19.802C29.7355 21.6937 27.8056 22.5812 25.8758 22.5812C23.8688 22.5812 22.4794 21.6163 22.4794 19.8796C22.4794 18.2193 23.56 17.1774 25.6442 17.1774H28.8863V14.2435H25.5284C20.8969 14.2435 18.311 16.5599 18.311 20.1109C18.311 23.4304 20.8197 25.9395 24.9495 25.9395C27.2653 25.9395 29.3109 25.0134 30.8161 23.8936H31.3951V25.4763H35.4477V13.047C35.4477 8.4535 32.3214 6.40764 27.4968 6.40764ZM0 25.4763H4.05262V0H0V25.4763ZM17.0209 6.87085H12.0806L6.1754 14.6298V17.0616L12.235 25.4763H17.2524L10.1508 15.8262L17.0209 6.87085ZM163.523 6.87085L160.203 14.2435C159.393 16.0194 158.621 17.7561 158.39 18.9145H157.81C157.579 17.7561 156.769 16.0578 155.958 14.2824L152.639 6.87085H148.161L155.958 23.5849L152.098 32H156.421L168 6.87085H163.523ZM147.265 6.87085H142.325L136.42 14.6298V17.0616L142.479 25.4763H147.497L140.395 15.8262L147.265 6.87085ZM121.892 14.4366L119.19 14.1663C117.067 13.9734 115.948 13.3944 115.948 12.1591C115.948 10.6923 117.376 9.84313 119.421 9.84313C121.544 9.84313 122.895 10.8467 123.011 12.2749H126.909C126.755 8.64653 123.937 6.40764 119.46 6.40764C114.944 6.40764 111.895 8.80091 111.895 12.3136C111.895 15.2472 113.748 17.1386 117.955 17.5632L120.695 17.8334C122.355 17.9877 123.474 18.3351 123.474 19.9178C123.474 21.3461 122.432 22.3882 119.692 22.3882C117.168 22.3882 115.925 21.243 115.488 19.7079H111.271C111.691 23.2169 114.639 25.9395 119.692 25.9395C124.439 25.9395 127.527 23.4304 127.527 19.7249C127.527 16.4438 125.365 14.784 121.892 14.4366ZM130.244 25.4763H134.297V0H130.244V25.4763ZM103.52 9.03275H102.941V6.87085H98.8888V25.4763H102.941V15.749C102.941 12.4294 104.475 10.4993 107.496 10.4993H110.061V6.40764H108.576C105.774 6.40764 104.582 7.46484 103.52 9.03275Z" fill="#1D1D1B"/>
</svg>
